<svg width="32" height="32" viewBox="0 0 32 32" fill="none" xmlns="http://www.w3.org/2000/svg">
<path d="M3 22V9C2.46957 9 1.96086 9.21071 1.58579 9.58579C1.21071 9.96086 1 10.4696 1 11V25C1 25.5304 1.21071 26.0391 1.58579 26.4142C1.96086 26.7893 2.46957 27 3 27H12.38C10.5069 25.6987 8.28079 25.0009 6 25C5.20435 25 4.44129 24.6839 3.87868 24.1213C3.31607 23.5587 3 22.7956 3 22ZM29 9V22C29 22.7956 28.6839 23.5587 28.1213 24.1213C27.5587 24.6839 26.7956 25 26 25C23.7192 25.0009 21.4931 25.6987 19.62 27H29C29.5304 27 30.0391 26.7893 30.4142 26.4142C30.7893 26.0391 31 25.5304 31 25V11C31 10.4696 30.7893 9.96086 30.4142 9.58579C30.0391 9.21071 29.5304 9 29 9Z" fill="#142B6F"/>
<path d="M6 5C5.73478 5 5.48043 5.10536 5.29289 5.29289C5.10536 5.48043 5 5.73478 5 6V22C5 22.2652 5.10536 22.5196 5.29289 22.7071C5.48043 22.8946 5.73478 23 6 23C9.00843 23.0031 11.9271 24.0254 14.28 25.9L15 26.48V5.18C14.6793 5.06358 14.3411 5.0027 14 5H6ZM27 22V6C27 5.73478 26.8946 5.48043 26.7071 5.29289C26.5196 5.10536 26.2652 5 26 5H18C17.6589 5.0027 17.3207 5.06358 17 5.18V26.48L17.72 25.9C20.0729 24.0254 22.9916 23.0031 26 23C26.2652 23 26.5196 22.8946 26.7071 22.7071C26.8946 22.5196 27 22.2652 27 22Z" fill="#142B6F"/>
</svg>
