<svg width="56" height="56" viewBox="0 0 56 56" fill="none" xmlns="http://www.w3.org/2000/svg">
<g clip-path="url(#clip0_193_2)">
<path d="M8.75 50.75H14C14.2321 50.75 14.4546 50.6578 14.6187 50.4937C14.7828 50.3296 14.875 50.107 14.875 49.875V49.245L20.7882 50.7237C20.8575 50.7412 20.9286 50.75 21 50.75H38.5C39.4283 50.75 40.3185 50.3812 40.9749 49.7248C41.6312 49.0684 42 48.1782 42 47.25C42 46.3217 41.6312 45.4315 40.9749 44.7751C40.3185 44.1187 39.4283 43.75 38.5 43.75H34.5135C34.8284 43.2203 34.9964 42.6162 35 42C35 41.0717 34.6313 40.1815 33.9749 39.5251C33.3185 38.8687 32.4283 38.5 31.5 38.5H24.7914L24.15 38.0187C23.2396 37.3412 22.1349 36.9752 21 36.9752C19.8651 36.9752 18.7604 37.3412 17.85 38.0187L17.2086 38.5H8.75C8.51794 38.5 8.29538 38.5921 8.13128 38.7562C7.96719 38.9203 7.875 39.1429 7.875 39.375V49.875C7.875 50.107 7.96719 50.3296 8.13128 50.4937C8.29538 50.6578 8.51794 50.75 8.75 50.75ZM14.875 40.25H17.5C17.6893 40.25 17.8735 40.1885 18.025 40.075L18.9 39.4187C19.5071 38.9674 20.2435 38.7237 21 38.7237C21.7565 38.7237 22.4929 38.9674 23.1 39.4187L23.975 40.075C24.1265 40.1885 24.3107 40.25 24.5 40.25H31.5C31.9641 40.25 32.4093 40.4343 32.7374 40.7625C33.0656 41.0907 33.25 41.5358 33.25 42C33.25 42.4641 33.0656 42.9092 32.7374 43.2374C32.4093 43.5656 31.9641 43.75 31.5 43.75H28.875V45.5H38.5C38.9641 45.5 39.4093 45.6843 39.7374 46.0125C40.0656 46.3407 40.25 46.7858 40.25 47.25C40.25 47.7141 40.0656 48.1592 39.7374 48.4874C39.4093 48.8156 38.9641 49 38.5 49H21.1076L14.875 47.4416V40.25ZM9.625 40.25H13.125V49H9.625V40.25Z" fill="black"/>
<path d="M14.875 28H13.125V29.75H14.875V28Z" fill="black"/>
<path d="M18.375 28H16.625V29.75H18.375V28Z" fill="black"/>
<path d="M7.875 28H6.125V29.75H7.875V28Z" fill="black"/>
<path d="M4.375 28H2.625V29.75H4.375V28Z" fill="black"/>
<path d="M11.375 28H9.625V29.75H11.375V28Z" fill="black"/>
<path d="M21.875 28H20.125V29.75H21.875V28Z" fill="black"/>
<path d="M25.375 28H23.625V29.75H25.375V28Z" fill="black"/>
<path d="M28.875 35H27.125V36.75H28.875V35Z" fill="black"/>
<path d="M52.5 27.125V23.625H50.75V27.125C50.75 27.3571 50.6578 27.5796 50.4937 27.7437C50.3296 27.9078 50.1071 28 49.875 28H29.75C29.0538 28 28.3861 28.2766 27.8938 28.7688C27.4016 29.2611 27.125 29.9288 27.125 30.625V33.25H28.875V30.625C28.875 30.3929 28.9672 30.1704 29.1313 30.0063C29.2954 29.8422 29.5179 29.75 29.75 29.75H49.875C50.5712 29.75 51.2389 29.4734 51.7312 28.9812C52.2234 28.4889 52.5 27.8212 52.5 27.125Z" fill="black"/>
<g clip-path="url(#clip1_193_2)">
<path d="M39.3887 21H54.2363V19.2363H39.3887C38.7871 19.2363 38.4863 18.9492 38.4863 18.375C38.4863 17.8008 38.7871 17.5137 39.3887 17.5137H54.2363V0H39.3887C38.623 0 37.9941 0.25293 37.502 0.758789C37.0098 1.26465 36.7637 1.88672 36.7637 2.625V17.5137H36.9277C36.8184 17.8418 36.7637 18.1289 36.7637 18.375C36.7637 19.1133 37.0098 19.7354 37.502 20.2412C37.9941 20.7471 38.623 21 39.3887 21ZM38.4863 2.625C38.4863 2.05078 38.7871 1.76367 39.3887 1.76367H52.5137V15.75H39.3887C39.1699 15.75 38.8691 15.8047 38.4863 15.9141V2.625ZM42.0137 7.01367H49.8887V8.73633H42.0137V7.01367ZM42.0137 3.48633H49.8887V5.25H42.0137V3.48633Z" fill="black"/>
</g>
</g>
<defs>
<clipPath id="clip0_193_2">
<rect width="56" height="56" fill="white"/>
</clipPath>
<clipPath id="clip1_193_2">
<rect width="21" height="21" fill="white" transform="translate(35)"/>
</clipPath>
</defs>
</svg>
